<svg xmlns="http://www.w3.org/2000/svg" width="50.377" height="46.078" viewBox="0 0 50.377 46.078">
  <path id="Icon_awesome-external-link-alt" data-name="Icon awesome-external-link-alt" d="M50.377,2.16V13.678a2.094,2.094,0,0,1-3.583,1.527L43.67,11.992l-21.3,21.916a2.057,2.057,0,0,1-2.968,0l-1.979-2.036a2.2,2.2,0,0,1,0-3.055L38.723,6.9,35.6,3.687A2.17,2.17,0,0,1,37.085,0H48.278A2.13,2.13,0,0,1,50.377,2.16ZM35.6,24.371l-1.4,1.44a2.192,2.192,0,0,0-.615,1.527V40.318H5.6V11.52H28.687a2.07,2.07,0,0,0,1.484-.632l1.4-1.44A2.168,2.168,0,0,0,30.086,5.76H4.2A4.26,4.26,0,0,0,0,10.08V41.758a4.26,4.26,0,0,0,4.2,4.32H34.984a4.26,4.26,0,0,0,4.2-4.32V25.9A2.092,2.092,0,0,0,35.6,24.371Z"/>
</svg>
